<svg width="219" height="64" viewBox="0 0 219 64" fill="none" xmlns="http://www.w3.org/2000/svg">
<path d="M0 21.808H6.06511C6.86525 21.808 7.60139 21.888 8.40153 22.032C9.20168 22.176 9.8578 22.464 10.5139 22.832C11.17 23.2 11.6021 23.776 12.0502 24.432C12.4183 25.088 12.6423 25.968 12.6423 26.992C12.6423 28.08 12.3543 29.04 11.6981 29.776C11.042 30.576 10.1619 31.088 9.07366 31.312V31.392C10.3859 31.536 11.4901 32.048 12.3543 32.928C13.2184 33.808 13.6665 34.976 13.6665 36.512C13.6665 37.392 13.5225 38.112 13.1544 38.848C12.7863 39.584 12.2742 40.16 11.6181 40.608C10.962 41.12 10.1619 41.488 9.20168 41.776C8.2415 42.064 7.23332 42.208 6.06511 42.208H0V21.808ZM2.04837 30.72H6.20913C6.72123 30.72 7.23332 30.64 7.74541 30.576C8.25751 30.432 8.68959 30.288 9.13767 29.984C9.56975 29.696 9.8738 29.328 10.1619 28.896C10.4499 28.464 10.5299 27.872 10.5299 27.216C10.5299 26.56 10.3859 26.048 10.1619 25.536C9.8738 25.104 9.56975 24.736 9.13767 24.448C8.70559 24.16 8.1935 23.936 7.60139 23.856C7.00928 23.712 6.35316 23.632 5.69704 23.632H2.11239V30.72H2.04837ZM2.04837 40.432H5.92108C6.65722 40.432 7.37735 40.352 8.03347 40.208C8.68959 40.064 9.28169 39.84 9.79379 39.552C10.3059 39.264 10.738 38.816 11.042 38.304C11.3301 37.792 11.4741 37.216 11.4741 36.48C11.4741 35.168 11.042 34.144 10.0818 33.488C9.20168 32.832 7.88944 32.464 6.20913 32.464H1.96836L2.04837 40.432ZM43.624 32.032C43.624 33.568 43.3359 35.024 42.8238 36.336C42.3117 37.648 41.5116 38.752 40.5514 39.696C39.5912 40.64 38.503 41.376 37.1908 41.968C35.8786 42.48 34.4863 42.768 32.95 42.768C31.4137 42.768 30.0215 42.48 28.7092 41.968C27.397 41.456 26.2928 40.656 25.3486 39.696C24.4045 38.752 23.6683 37.648 23.0762 36.336C22.5641 35.024 22.2761 33.632 22.2761 32.032C22.2761 30.496 22.5641 29.04 23.0762 27.728C23.5883 26.416 24.3885 25.312 25.3486 24.368C26.2928 23.424 27.397 22.688 28.7092 22.096C30.0215 21.584 31.4137 21.296 32.95 21.296C34.4863 21.296 35.8786 21.584 37.1908 22.096C38.503 22.608 39.6072 23.408 40.5514 24.368C41.4956 25.312 42.2317 26.416 42.8238 27.728C43.3359 29.04 43.624 30.432 43.624 32.032ZM41.4316 32.032C41.4316 30.864 41.2075 29.696 40.8395 28.672C40.4714 27.584 39.8953 26.624 39.1591 25.824C38.423 25.024 37.5589 24.368 36.5347 23.856C35.5105 23.344 34.3423 23.12 33.03 23.12C31.7178 23.12 30.5496 23.344 29.5254 23.856C28.4372 24.368 27.557 25.024 26.8209 25.824C26.0848 26.624 25.5087 27.584 25.1406 28.672C24.7725 29.76 24.5485 30.864 24.5485 32.032C24.5485 33.2 24.7725 34.368 25.1406 35.392C25.5087 36.48 26.0848 37.44 26.8209 38.24C27.557 39.04 28.4212 39.696 29.4454 40.144C30.4696 40.656 31.6378 40.88 32.95 40.88C34.2623 40.88 35.4305 40.656 36.4547 40.144C37.4788 39.632 38.359 39.056 39.0791 38.24C39.8153 37.44 40.3914 36.48 40.7594 35.392C41.2075 34.368 41.4316 33.2 41.4316 32.032ZM64.4438 23.712C64.0117 23.056 63.1955 22.464 62.2514 21.952C61.3072 21.44 60.139 21.216 58.7467 21.216C58.0106 21.216 57.2905 21.296 56.4743 21.504C55.6742 21.728 55.018 22.096 54.3619 22.528C53.7058 22.96 53.1937 23.552 52.8256 24.288C52.4576 25.024 52.2335 25.888 52.2335 26.848C52.2335 27.792 52.4576 28.528 52.7456 29.184C53.0337 29.84 53.4818 30.352 53.9939 30.784C54.506 31.216 55.0821 31.52 55.7542 31.808C56.4103 32.096 57.0664 32.32 57.7225 32.544C58.3787 32.768 59.0348 32.976 59.6269 33.2C60.219 33.424 60.7951 33.712 61.2272 34C61.6593 34.288 62.0273 34.736 62.3154 35.168C62.6034 35.6 62.7475 36.192 62.7475 36.928C62.7475 37.52 62.6034 38.096 62.3154 38.608C62.0273 39.12 61.6593 39.488 61.2272 39.856C60.7951 40.144 60.283 40.448 59.7709 40.592C59.1788 40.736 58.6827 40.816 58.1706 40.816C57.1464 40.816 56.2023 40.592 55.3861 40.08C54.65 39.568 53.9939 38.992 53.5618 38.256L51.8015 39.568C52.1695 40.08 52.5376 40.512 53.0497 40.88C53.4818 41.248 53.9939 41.616 54.586 41.824C55.1781 42.112 55.7542 42.256 56.3463 42.416C56.9384 42.576 57.5945 42.64 58.1706 42.64C58.9708 42.64 59.7709 42.496 60.5871 42.272C61.3872 41.984 62.0433 41.68 62.6994 41.184C63.3556 40.688 63.8677 40.096 64.2357 39.36C64.6038 38.624 64.8278 37.76 64.8278 36.736C64.8278 35.792 64.6838 34.912 64.3157 34.256C63.9477 33.6 63.5156 33.088 62.9235 32.656C62.3314 32.224 61.6753 31.92 60.9551 31.632C60.219 31.408 59.5629 31.12 58.8427 30.896C58.2506 30.672 57.6745 30.528 57.1624 30.304C56.6503 30.08 56.2183 29.872 55.7702 29.568C55.3381 29.28 54.97 28.912 54.746 28.48C54.522 28.048 54.3779 27.536 54.3779 26.88C54.3779 26.224 54.4579 25.712 54.746 25.2C55.034 24.768 55.3381 24.32 55.7702 24.032C56.1382 23.664 56.6503 23.44 57.1624 23.296C57.6745 23.152 58.1866 23.072 58.6987 23.072C59.6429 23.072 60.5231 23.296 61.1792 23.664C61.8353 24.032 62.4274 24.544 62.8595 25.12L64.4438 23.712ZM81.7749 23.632H88.5762V21.808H72.8613V23.632H79.7266V42.192H81.7749V23.632ZM116.261 32.032C116.261 33.568 115.973 35.024 115.461 36.336C114.949 37.648 114.149 38.752 113.189 39.696C112.244 40.64 111.14 41.376 109.828 41.968C108.516 42.48 107.124 42.768 105.587 42.768C104.051 42.768 102.659 42.48 101.347 41.968C100.034 41.456 98.9301 40.656 97.9859 39.696C97.0417 38.752 96.3056 37.648 95.7135 36.336C95.2014 35.024 94.9133 33.632 94.9133 32.032C94.9133 30.496 95.2014 29.04 95.7135 27.728C96.2256 26.416 97.0257 25.312 97.9859 24.368C98.9301 23.424 100.034 22.688 101.347 22.096C102.659 21.584 104.051 21.296 105.587 21.296C107.124 21.296 108.516 21.584 109.828 22.096C111.14 22.608 112.244 23.408 113.189 24.368C114.133 25.312 114.869 26.416 115.461 27.728C115.973 29.04 116.261 30.432 116.261 32.032ZM114.069 32.032C114.069 30.864 113.845 29.696 113.477 28.672C113.109 27.584 112.533 26.624 111.796 25.824C111.06 25.024 110.196 24.368 109.172 23.856C108.148 23.344 106.98 23.12 105.667 23.12C104.355 23.12 103.187 23.344 102.163 23.856C101.138 24.368 100.258 24.944 99.5382 25.824C98.802 26.624 98.2259 27.584 97.8579 28.672C97.4898 29.76 97.2658 30.864 97.2658 32.032C97.2658 33.2 97.4898 34.368 97.8579 35.392C98.2259 36.48 98.802 37.44 99.5382 38.24C100.274 39.04 101.138 39.696 102.163 40.144C103.187 40.656 104.355 40.88 105.667 40.88C106.98 40.88 108.148 40.656 109.172 40.144C110.196 39.632 111.076 39.056 111.796 38.24C112.533 37.44 113.109 36.48 113.477 35.392C113.925 34.368 114.069 33.2 114.069 32.032ZM128.68 21.808H126.119V42.192H128.167V24.656H128.247L140.09 42.192H142.714V21.808H140.666L140.602 39.2L128.68 21.808ZM186.994 0C169.311 0 154.988 14.32 154.988 32C154.988 49.68 169.311 64 186.994 64C204.677 64 219 49.68 219 32C219 14.32 204.677 0 186.994 0ZM183.409 35.872C183.409 37.12 183.185 38.208 182.817 39.232C182.385 40.256 181.793 41.136 181.057 41.792C180.257 42.528 179.377 43.104 178.273 43.472C177.184 43.904 176 44.064 174.688 44.064C173.376 44.064 172.127 43.84 171.039 43.472C169.951 43.04 169.071 42.528 168.335 41.792C167.599 41.056 167.022 40.192 166.574 39.232C166.142 38.208 165.982 37.12 165.982 35.872V23.152H170.879V35.424C170.879 36.016 170.959 36.512 171.103 37.024C171.247 37.536 171.471 37.968 171.759 38.336C172.047 38.704 172.415 39.072 172.928 39.28C173.44 39.488 174.016 39.648 174.688 39.648C175.36 39.648 176 39.504 176.448 39.28C176.96 39.056 177.328 38.768 177.616 38.336C177.904 37.968 178.129 37.536 178.273 37.024C178.417 36.512 178.497 36 178.497 35.424V23.152H183.393V35.872H183.409ZM202.421 43.552L197.956 36.4L193.651 43.552H187.81L194.964 32.816L188.386 23.168H194.307L198.1 29.52L201.829 23.168H207.526L201.093 32.816L208.47 43.552H202.421Z" fill="white"/>
</svg>
